<?xml version="1.0" encoding="UTF-8"?>
<svg width="113px" height="80px" viewBox="0 0 113 80" version="1.1" xmlns="http://www.w3.org/2000/svg" xmlns:xlink="http://www.w3.org/1999/xlink">
    <title>LOGO-PI</title>
    <g id="Mapimo-Final" stroke="none" stroke-width="1" fill="none" fill-rule="evenodd">
        <g id="M-1-6-Copy-2" transform="translate(-167.000000, -406.000000)" fill="#507492" fill-rule="nonzero">
            <g id="LOGO-PI" transform="translate(167.000000, 406.000000)">
                <path d="M95.8201128,37.7073171 C105.308303,37.7073171 113,45.3990145 113,54.8872042 L113,80 L78.6402257,80 L78.6402257,54.8872042 C78.6402257,45.3990145 86.3319232,37.7073171 95.8201128,37.7073171 Z M95.6765212,0 C105.085407,0 112.712817,7.64391891 112.712817,17.0731707 C112.712817,26.5024226 105.085407,34.1463415 95.6765212,34.1463415 C86.267635,34.1463415 78.6402257,26.5024226 78.6402257,17.0731707 C78.6402257,7.64391891 86.267635,0 95.6765212,0 Z" id="Combined-Shape"></path>
                <path d="M35.922246,0 C40.8449241,0 45.4848809,0.95 49.8421163,2.85 C54.1993517,4.75 57.9911443,7.33333333 61.2174942,10.6 C64.4438441,13.8666667 66.9883365,17.6833333 68.8509715,22.05 C70.7136064,26.4166667 71.6449239,31.0666667 71.6449239,36 C71.6449239,40.9333333 70.7136064,45.5833333 68.8509715,49.95 C66.9883365,54.3166667 64.4438441,58.1166667 61.2174942,61.35 C57.9911443,64.5833333 54.1993517,67.1333333 49.8421163,69 C45.4848809,70.8666667 40.8449241,71.8 35.922246,71.8 C32.9952482,71.8 30.1680344,71.4666667 27.4406046,70.8 C24.7131748,70.1333333 22.1520517,69.2 19.7572353,68 L0,80 L0,36 C0,31.0666667 0.931317488,26.4166667 2.79395247,22.05 C4.65658744,17.6833333 7.21771054,13.8666667 10.4773217,10.6 C13.736933,7.33333333 17.5453563,4.75 21.9025916,2.85 C26.259827,0.95 30.9330452,0 35.922246,0 Z M25.4227307,46.2977171 L25.2036551,46.313094 C24.6340851,46.4052581 24.1940235,46.8946888 24.1821589,47.493258 C24.1693112,48.1666484 24.703417,48.723168 25.375353,48.7362793 L25.375353,48.7362793 L48.1208823,49.1801067 L48.3399579,49.1647298 C48.9095279,49.0725656 49.3495895,48.5831349 49.3614541,47.9845657 C49.3743018,47.3111754 48.8401959,46.7546558 48.16826,46.7415445 L48.16826,46.7415445 L25.4227307,46.2977171 Z M25.4227307,36.0977921 L25.2036551,36.113169 C24.6340851,36.2053331 24.1940235,36.6947638 24.1821589,37.2933331 C24.1693112,37.9667234 24.703417,38.523243 25.375353,38.5363543 L25.375353,38.5363543 L48.1208823,38.9801817 L48.3399579,38.9648048 C48.9095279,38.8726406 49.3495895,38.3832099 49.3614541,37.7846407 C49.3743018,37.1112504 48.8401959,36.5547308 48.16826,36.5416195 L48.16826,36.5416195 L25.4227307,36.0977921 Z M25.4227307,25.8978671 L25.2036551,25.913244 C24.6340851,26.0054082 24.1940235,26.4948389 24.1821589,27.0934081 C24.1693112,27.7667984 24.703417,28.323318 25.375353,28.3364293 L25.375353,28.3364293 L48.1208823,28.7802567 L48.3399579,28.7648798 C48.9095279,28.6727156 49.3495895,28.1832849 49.3614541,27.5847157 C49.3743018,26.9113254 48.8401959,26.3548058 48.16826,26.3416945 L48.16826,26.3416945 L25.4227307,25.8978671 Z" id="Combined-Shape"></path>
            </g>
        </g>
    </g>
</svg>
