<?xml version="1.0" encoding="UTF-8"?>
<svg width="184px" height="80px" viewBox="0 0 184 80" version="1.1" xmlns="http://www.w3.org/2000/svg" xmlns:xlink="http://www.w3.org/1999/xlink">
    <title>LOGO-MO</title>
    <g id="Mapimo-Final" stroke="none" stroke-width="1" fill="none" fill-rule="evenodd">
        <g id="M-1-6-Copy-2" transform="translate(-96.000000, -547.000000)" fill="#507492">
            <g id="LOGO-MO" transform="translate(96.000000, 547.000000)">
                <path d="M72.6999541,0 L96.9332721,14.3589744 L96.9332721,80 L72.6999541,65.6410256 L73.6211776,66.1828593 L73.6211776,47.5151515 L73.601656,47.2972712 C73.499062,46.7318186 73.0043425,46.3030303 72.4095117,46.3030303 C71.7403271,46.3030303 71.1978458,46.8457155 71.1978458,47.5151515 L71.1978458,47.5151515 L71.1978458,66.5234622 L72.6999541,65.6410256 L48.4666361,80 L24.233318,65.6410256 L0,80 L0,14.3589744 L22.731,0.89 L22.7312097,22.5891655 L22.7507313,22.8070458 C22.8533254,23.3724984 23.3480449,23.8012867 23.9428756,23.8012867 C24.6120602,23.8012867 25.1545415,23.2586015 25.1545415,22.5891655 L25.1545415,22.5891655 L25.154,0.546 L48.4666361,14.3589744 L72.6999541,0 Z" id="Combined-Shape"></path>
                <path d="M143.949305,0 C149.4229,0 154.596115,1.05 159.468949,3.15 C164.341784,5.25 168.59717,8.11666667 172.235108,11.75 C175.873047,15.3833333 178.743346,19.6333333 180.846008,24.5 C182.948669,29.3666667 184,34.5333333 184,40 C184,45.5333333 182.948669,50.7166667 180.846008,55.55 C178.743346,60.3833333 175.873047,64.6166667 172.235108,68.25 C168.59717,71.8833333 164.341784,74.75 159.468949,76.85 C154.596115,78.95 149.4229,80 143.949305,80 C138.408959,80 133.219057,78.95 128.379598,76.85 C123.540139,74.75 119.30144,71.8833333 115.663502,68.25 C112.025564,64.6166667 109.155264,60.3833333 107.052603,55.55 C104.949941,50.7166667 103.89861,45.5333333 103.89861,40 C103.89861,34.5333333 104.949941,29.3666667 107.052603,24.5 C109.155264,19.6333333 112.025564,15.3833333 115.663502,11.75 C119.30144,8.11666667 123.540139,5.25 128.379598,3.15 C133.219057,1.05 138.408959,0 143.949305,0 Z M143.768589,19.2682927 C132.304272,19.2682927 123.010607,28.5501942 123.010607,40 C123.010607,51.4498058 132.304272,60.7317073 143.768589,60.7317073 C155.232906,60.7317073 164.526571,51.4498058 164.526571,40 C164.526571,28.5501942 155.232906,19.2682927 143.768589,19.2682927 Z M143.768589,21.7073171 C153.884162,21.7073171 162.084455,29.8972302 162.084455,40 C162.084455,50.1027698 153.884162,58.2926829 143.768589,58.2926829 C133.653015,58.2926829 125.452722,50.1027698 125.452722,40 C125.452722,29.8972302 133.653015,21.7073171 143.768589,21.7073171 Z" id="Combined-Shape" fill-rule="nonzero"></path>
            </g>
        </g>
    </g>
</svg>
